<mxfile host="app.diagrams.net" agent="Mozilla/5.0 (Windows NT 10.0; Win64; x64) AppleWebKit/537.36 (KHTML, like Gecko) Chrome/140.0.0.0 Safari/537.36" version="28.2.5">
  <diagram name="Página-1" id="kbbJ25qC3l_U4r06RirF">
    <mxGraphModel dx="2108" dy="527" grid="1" gridSize="10" guides="1" tooltips="1" connect="1" arrows="1" fold="1" page="1" pageScale="1" pageWidth="827" pageHeight="1169" math="0" shadow="0">
      <root>
        <mxCell id="0" />
        <mxCell id="1" parent="0" />
        <mxCell id="ZU6-jZ92DvtUVLpEz-CB-3" style="edgeStyle=orthogonalEdgeStyle;rounded=0;orthogonalLoop=1;jettySize=auto;html=1;exitX=0.5;exitY=1;exitDx=0;exitDy=0;entryX=0.5;entryY=0;entryDx=0;entryDy=0;" edge="1" parent="1" source="ZU6-jZ92DvtUVLpEz-CB-1" target="ZU6-jZ92DvtUVLpEz-CB-2">
          <mxGeometry relative="1" as="geometry" />
        </mxCell>
        <mxCell id="ZU6-jZ92DvtUVLpEz-CB-5" style="edgeStyle=orthogonalEdgeStyle;rounded=0;orthogonalLoop=1;jettySize=auto;html=1;exitX=0.5;exitY=1;exitDx=0;exitDy=0;entryX=0.5;entryY=0;entryDx=0;entryDy=0;" edge="1" parent="1" source="ZU6-jZ92DvtUVLpEz-CB-1" target="ZU6-jZ92DvtUVLpEz-CB-4">
          <mxGeometry relative="1" as="geometry" />
        </mxCell>
        <mxCell id="ZU6-jZ92DvtUVLpEz-CB-1" value="Pantalla Inicio" style="rounded=0;whiteSpace=wrap;html=1;" vertex="1" parent="1">
          <mxGeometry x="320" y="20" width="120" height="60" as="geometry" />
        </mxCell>
        <mxCell id="ZU6-jZ92DvtUVLpEz-CB-13" style="edgeStyle=orthogonalEdgeStyle;rounded=0;orthogonalLoop=1;jettySize=auto;html=1;exitX=0.5;exitY=1;exitDx=0;exitDy=0;entryX=0.5;entryY=0;entryDx=0;entryDy=0;" edge="1" parent="1" source="ZU6-jZ92DvtUVLpEz-CB-2" target="ZU6-jZ92DvtUVLpEz-CB-11">
          <mxGeometry relative="1" as="geometry" />
        </mxCell>
        <mxCell id="ZU6-jZ92DvtUVLpEz-CB-14" style="edgeStyle=orthogonalEdgeStyle;rounded=0;orthogonalLoop=1;jettySize=auto;html=1;exitX=0.5;exitY=1;exitDx=0;exitDy=0;" edge="1" parent="1" source="ZU6-jZ92DvtUVLpEz-CB-2" target="ZU6-jZ92DvtUVLpEz-CB-12">
          <mxGeometry relative="1" as="geometry" />
        </mxCell>
        <mxCell id="ZU6-jZ92DvtUVLpEz-CB-2" value="Login" style="rounded=0;whiteSpace=wrap;html=1;" vertex="1" parent="1">
          <mxGeometry x="90" y="140" width="120" height="60" as="geometry" />
        </mxCell>
        <mxCell id="ZU6-jZ92DvtUVLpEz-CB-9" style="edgeStyle=orthogonalEdgeStyle;rounded=0;orthogonalLoop=1;jettySize=auto;html=1;exitX=0.5;exitY=1;exitDx=0;exitDy=0;entryX=0.5;entryY=0;entryDx=0;entryDy=0;" edge="1" parent="1" source="ZU6-jZ92DvtUVLpEz-CB-4" target="ZU6-jZ92DvtUVLpEz-CB-8">
          <mxGeometry relative="1" as="geometry" />
        </mxCell>
        <mxCell id="ZU6-jZ92DvtUVLpEz-CB-10" style="edgeStyle=orthogonalEdgeStyle;rounded=0;orthogonalLoop=1;jettySize=auto;html=1;exitX=0.5;exitY=1;exitDx=0;exitDy=0;entryX=0.5;entryY=0;entryDx=0;entryDy=0;" edge="1" parent="1" source="ZU6-jZ92DvtUVLpEz-CB-4" target="ZU6-jZ92DvtUVLpEz-CB-6">
          <mxGeometry relative="1" as="geometry" />
        </mxCell>
        <mxCell id="ZU6-jZ92DvtUVLpEz-CB-4" value="Registro" style="rounded=0;whiteSpace=wrap;html=1;" vertex="1" parent="1">
          <mxGeometry x="650" y="140" width="120" height="60" as="geometry" />
        </mxCell>
        <mxCell id="ZU6-jZ92DvtUVLpEz-CB-6" value="Registro club" style="rounded=0;whiteSpace=wrap;html=1;" vertex="1" parent="1">
          <mxGeometry x="870" y="270" width="120" height="60" as="geometry" />
        </mxCell>
        <mxCell id="ZU6-jZ92DvtUVLpEz-CB-8" value="Registro Entrenador" style="rounded=0;whiteSpace=wrap;html=1;" vertex="1" parent="1">
          <mxGeometry x="580" y="270" width="120" height="60" as="geometry" />
        </mxCell>
        <mxCell id="ZU6-jZ92DvtUVLpEz-CB-18" style="edgeStyle=orthogonalEdgeStyle;rounded=0;orthogonalLoop=1;jettySize=auto;html=1;exitX=0.5;exitY=1;exitDx=0;exitDy=0;entryX=0.5;entryY=0;entryDx=0;entryDy=0;" edge="1" parent="1" source="ZU6-jZ92DvtUVLpEz-CB-11" target="ZU6-jZ92DvtUVLpEz-CB-15">
          <mxGeometry relative="1" as="geometry" />
        </mxCell>
        <mxCell id="ZU6-jZ92DvtUVLpEz-CB-19" style="edgeStyle=orthogonalEdgeStyle;rounded=0;orthogonalLoop=1;jettySize=auto;html=1;exitX=0.5;exitY=1;exitDx=0;exitDy=0;" edge="1" parent="1" source="ZU6-jZ92DvtUVLpEz-CB-11" target="ZU6-jZ92DvtUVLpEz-CB-17">
          <mxGeometry relative="1" as="geometry" />
        </mxCell>
        <mxCell id="ZU6-jZ92DvtUVLpEz-CB-20" style="edgeStyle=orthogonalEdgeStyle;rounded=0;orthogonalLoop=1;jettySize=auto;html=1;exitX=0.5;exitY=1;exitDx=0;exitDy=0;entryX=0.5;entryY=0;entryDx=0;entryDy=0;" edge="1" parent="1" source="ZU6-jZ92DvtUVLpEz-CB-11" target="ZU6-jZ92DvtUVLpEz-CB-16">
          <mxGeometry relative="1" as="geometry" />
        </mxCell>
        <mxCell id="ZU6-jZ92DvtUVLpEz-CB-30" style="edgeStyle=orthogonalEdgeStyle;rounded=0;orthogonalLoop=1;jettySize=auto;html=1;exitX=0.5;exitY=1;exitDx=0;exitDy=0;" edge="1" parent="1" source="ZU6-jZ92DvtUVLpEz-CB-11" target="ZU6-jZ92DvtUVLpEz-CB-29">
          <mxGeometry relative="1" as="geometry" />
        </mxCell>
        <mxCell id="ZU6-jZ92DvtUVLpEz-CB-11" value="Menú Club" style="rounded=0;whiteSpace=wrap;html=1;" vertex="1" parent="1">
          <mxGeometry x="-220" y="270" width="120" height="60" as="geometry" />
        </mxCell>
        <mxCell id="ZU6-jZ92DvtUVLpEz-CB-22" style="edgeStyle=orthogonalEdgeStyle;rounded=0;orthogonalLoop=1;jettySize=auto;html=1;exitX=0.5;exitY=1;exitDx=0;exitDy=0;entryX=0.5;entryY=0;entryDx=0;entryDy=0;" edge="1" parent="1" source="ZU6-jZ92DvtUVLpEz-CB-12" target="ZU6-jZ92DvtUVLpEz-CB-21">
          <mxGeometry relative="1" as="geometry" />
        </mxCell>
        <mxCell id="ZU6-jZ92DvtUVLpEz-CB-24" style="edgeStyle=orthogonalEdgeStyle;rounded=0;orthogonalLoop=1;jettySize=auto;html=1;exitX=0.5;exitY=1;exitDx=0;exitDy=0;" edge="1" parent="1" source="ZU6-jZ92DvtUVLpEz-CB-12" target="ZU6-jZ92DvtUVLpEz-CB-23">
          <mxGeometry relative="1" as="geometry" />
        </mxCell>
        <mxCell id="ZU6-jZ92DvtUVLpEz-CB-27" style="edgeStyle=orthogonalEdgeStyle;rounded=0;orthogonalLoop=1;jettySize=auto;html=1;exitX=0.5;exitY=1;exitDx=0;exitDy=0;" edge="1" parent="1" source="ZU6-jZ92DvtUVLpEz-CB-12" target="ZU6-jZ92DvtUVLpEz-CB-25">
          <mxGeometry relative="1" as="geometry" />
        </mxCell>
        <mxCell id="ZU6-jZ92DvtUVLpEz-CB-28" style="edgeStyle=orthogonalEdgeStyle;rounded=0;orthogonalLoop=1;jettySize=auto;html=1;exitX=0.5;exitY=1;exitDx=0;exitDy=0;entryX=0.5;entryY=0;entryDx=0;entryDy=0;" edge="1" parent="1" source="ZU6-jZ92DvtUVLpEz-CB-12" target="ZU6-jZ92DvtUVLpEz-CB-26">
          <mxGeometry relative="1" as="geometry" />
        </mxCell>
        <mxCell id="ZU6-jZ92DvtUVLpEz-CB-12" value="Menú Entrenador" style="rounded=0;whiteSpace=wrap;html=1;" vertex="1" parent="1">
          <mxGeometry x="170" y="280" width="120" height="60" as="geometry" />
        </mxCell>
        <mxCell id="ZU6-jZ92DvtUVLpEz-CB-15" value="Buscar Torneo" style="rounded=0;whiteSpace=wrap;html=1;" vertex="1" parent="1">
          <mxGeometry x="-413" y="390" width="120" height="60" as="geometry" />
        </mxCell>
        <mxCell id="ZU6-jZ92DvtUVLpEz-CB-16" value="Crear Torneo" style="rounded=0;whiteSpace=wrap;html=1;" vertex="1" parent="1">
          <mxGeometry x="-70" y="390" width="120" height="60" as="geometry" />
        </mxCell>
        <mxCell id="ZU6-jZ92DvtUVLpEz-CB-17" value="Crear equipo" style="rounded=0;whiteSpace=wrap;html=1;" vertex="1" parent="1">
          <mxGeometry x="-220" y="400" width="120" height="60" as="geometry" />
        </mxCell>
        <mxCell id="ZU6-jZ92DvtUVLpEz-CB-21" value="Buscar Torneo" style="rounded=0;whiteSpace=wrap;html=1;" vertex="1" parent="1">
          <mxGeometry x="110" y="430" width="120" height="60" as="geometry" />
        </mxCell>
        <mxCell id="ZU6-jZ92DvtUVLpEz-CB-23" value="Editar plantilla" style="rounded=0;whiteSpace=wrap;html=1;" vertex="1" parent="1">
          <mxGeometry x="260" y="430" width="120" height="60" as="geometry" />
        </mxCell>
        <mxCell id="ZU6-jZ92DvtUVLpEz-CB-25" value="Torneos pendientes" style="rounded=0;whiteSpace=wrap;html=1;" vertex="1" parent="1">
          <mxGeometry x="420" y="430" width="120" height="60" as="geometry" />
        </mxCell>
        <mxCell id="ZU6-jZ92DvtUVLpEz-CB-26" value="Historial" style="rounded=0;whiteSpace=wrap;html=1;" vertex="1" parent="1">
          <mxGeometry x="570" y="430" width="120" height="60" as="geometry" />
        </mxCell>
        <mxCell id="ZU6-jZ92DvtUVLpEz-CB-29" value="Participaciones" style="rounded=0;whiteSpace=wrap;html=1;" vertex="1" parent="1">
          <mxGeometry x="-590" y="390" width="120" height="60" as="geometry" />
        </mxCell>
      </root>
    </mxGraphModel>
  </diagram>
</mxfile>
